<svg xmlns="http://www.w3.org/2000/svg" viewBox="0 0 155.583 155.581"><title>logo-CYCLEPOP</title><path d="M112.415,122.716a10.94,10.94,0,0,0-7.712,15.921c-1.33.574-2.684,1.094-4.051,1.58a10.95,10.95,0,0,0-21.5,3.725c-1.442,0-2.889-.023-4.346-0.113a10.95,10.95,0,0,0-21.251-4.967c-1.343-.564-2.668-1.154-3.961-1.8a10.95,10.95,0,0,0-17.613-12.889c-1.011-1.039-1.977-2.119-2.916-3.223a10.957,10.957,0,0,0,3.014-14.51c-0.032-.055-0.07-0.1-0.1-0.156l6.213-3.682a47.284,47.284,0,0,0,68.4,14.212L86.577,96.548A19.628,19.628,0,0,1,59.244,78.5a18.877,18.877,0,0,1,1.685-7.926L73.842,83.651,84.163,73.33,71.313,60.4a17.731,17.731,0,0,1,7.556-1.522A19.631,19.631,0,0,1,96.931,86.18l20.105,20.235A47.286,47.286,0,0,0,86.392,31.809l1.148-7.118A10.951,10.951,0,0,0,99.875,16.51q2.074,0.7,4.072,1.531a10.95,10.95,0,0,0,18.48,11.611c1.084,0.969,2.139,1.963,3.156,3A10.949,10.949,0,0,0,138.06,50.56q0.929,1.967,1.729,4a10.949,10.949,0,0,0,4.494,21.36c0.055,1.443.047,2.9,0.006,4.359a10.949,10.949,0,0,0-4.211,21.417q-0.773,2.042-1.674,4.01a10.949,10.949,0,0,0-15.83,6.283L138.7,128.213a77.777,77.777,0,1,0-10.527,10.457ZM72.691,8.453c6.2-.826,8.862,1.369,9.694,7.587,0.9,6.693-.365,9.187-7.327,10.114l-5.9.786,0.814,6.091-6.662.888L60.133,10.127ZM37.461,21.8c5.52-4.178,8.5-5.588,12.951.071l0.561,0.74-5.52,4.178-0.56-.74c-1.482-1.567-2.838-.742-4.66.637-3.055,2.312-2.673,3.428-.606,6.158l2.26,2.985c2.164,2.857,3.128,3.853,6.344,1.42,2.224-1.684,3.18-2.647,1.48-4.893L49.285,31.8,54.8,27.621l0.425,0.561c1.584,2.092,2.987,4,2.266,6.833-0.74,2.808-2.983,4.465-5.314,6.23-5.466,4.137-9.652,6.9-14.945-.087l-3.747-4.95C28.7,29.881,31.566,26.266,37.461,21.8ZM14.8,50.084c2.726-6.362,4.613-9.062,11.286-6.35L26.935,44.1l-2.725,6.362L23.356,50.1c-2.064-.628-2.833.76-3.732,2.86-1.508,3.52-.624,4.3,2.524,5.65l3.442,1.475c3.295,1.412,4.626,1.8,6.213-1.907,1.1-2.563,1.451-3.874-1.138-4.983l-0.647-.277,2.725-6.362,0.647,0.277c2.412,1.034,4.576,2,5.353,4.816,0.748,2.806-.379,5.357-1.53,8.044-2.7,6.3-4.964,10.776-13.025,7.322l-5.707-2.445C11.185,61.439,11.886,56.878,14.8,50.084Zm4.729,46.528c-7.886.9-9.534-3.414-10.367-10.758-0.779-6.878-.475-10.159,6.665-11.106l0.922-.1,0.78,6.877-0.922.105c-2.1.476-2.085,2.063-1.828,4.333,0.431,3.806,1.586,4.047,4.988,3.66l3.721-.423c3.562-.405,4.91-0.728,4.456-4.734-0.314-2.771-.656-4.085-3.454-3.767l-0.7.08L23.005,73.9l0.7-.08c2.607-.3,4.964-0.531,7.034,1.533,2.038,2.068,2.321,4.842,2.65,7.747,0.772,6.811,1.017,11.821-7.7,12.813Z" transform="translate(-1.077 -0.708)" style="fill:#fff"/><path d="M72.987,20.812c2.619-.446,2.947-0.78,2.536-3.857-0.327-2.442-.829-3.15-3.427-2.8l-4.563.608,0.891,6.662Z" transform="translate(-1.077 -0.708)" style="fill:#fff"/><path d="M135.918,131.381l1.721-1.916s-37.566-37.422-39.152-38.9a5.29,5.29,0,0,0-6.812.1,5.617,5.617,0,0,1,5.584,1.291C98.4,93.069,135.918,131.381,135.918,131.381Z" transform="translate(-1.077 -0.708)" style="fill:#fff"/></svg>